<svg xmlns="http://www.w3.org/2000/svg" width="104.46" height="32"><path d="M61.77 11.47A23.36 23.36 0 0 1 59 19.76a10.87 10.87 0 0 0 4.3 3.61A7.75 7.75 0 0 0 62 25a12.34 12.34 0 0 1-4.16-3.55A14.31 14.31 0 0 1 53 25.2a10.75 10.75 0 0 0-1.15-1.78 11.77 11.77 0 0 0 4.87-3.74 23.39 23.39 0 0 1-2.08-5.4 23.56 23.56 0 0 1-1.3 2.08 16.23 16.23 0 0 0-1.22-1.26h0-5.32v6l5.29-1.85a9 9 0 0 0 .25 1.83l-7.45 3.15a8 8 0 0 0-.74-2 1.23 1.23 0 0 0 .7-1.23v-7.81h5.33v-4H44.6V7.25h7.52v7.33a22.24 22.24 0 0 0 3.3-8.73l1.93.36-.86 3.46h6.45v1.81zm-6 .17a23.41 23.41 0 0 0 2.06 6.17 21.29 21.29 0 0 0 1.89-6.34h-3.87zm27.48-4.89v18.39h-2v-.82H67.63v.82h-1.87V6.75zm-2 15.85V8.51H67.63V22.6zm-1.38-11.65a11.87 11.87 0 0 1-3.63 3.51 23.29 23.29 0 0 0 5 1.47 6.17 6.17 0 0 0-1.09 1.45 21.47 21.47 0 0 1-5.46-2 24.79 24.79 0 0 1-6 2.23 5.78 5.78 0 0 0-.92-1.6A25.77 25.77 0 0 0 73 14.43a12.27 12.27 0 0 1-2-1.57 17.11 17.11 0 0 1-1.64 1.26 10 10 0 0 0-1.3-1.18 14.13 14.13 0 0 0 4.54-4.22l1.6.55a9.27 9.27 0 0 1-.78 1.09h5l.27-.08zm-9.22 8.13a47.44 47.44 0 0 1 8.42 1.76l-.86 1.41a46.31 46.31 0 0 0-8.46-1.89zm1.91-2.5a27.51 27.51 0 0 1 5 1.55l-.82 1.24a27.24 27.24 0 0 0-5-1.66zm2-2.92a13.51 13.51 0 0 0 2.56-1.81h-5a10.63 10.63 0 0 0 2.46 1.8zm29.9 9.06v1.8H86.57v-1.8h7.81V19h-5.29v-1.82h5.29v-2.9h-5.92V13h-1.7V8.34h8.08l-.95-2.23 1.93-.42a26.82 26.82 0 0 1 1.24 2.65h7.14V13h-1.68v1.3h-6v2.9H102V19h-5.49v3.76h4.24l-2.92-2.79 1.39-1 3.13 2.81-1.24.95zM88.7 10.19v2.29h13.5v-2.29z" fill="#333"/><rect width="28.75" height="28.75" rx="5.63" fill="#ff5c26"/><path d="M13.63,8H26.38A5.63,5.63,0,0,1,32,13.63V26.38A5.62,5.62,0,0,1,26.38,32H13.62A5.62,5.62,0,0,1,8,26.38V13.62A5.63,5.63,0,0,1,13.63,8Z" fill="#ffc926"/><path d="M28.75 28.05v-6.92a.7.7 0 0 0-1.4 0h0v5.23l-5.6-5.6-1-1-.12-.12a.7.7 0 0 0-1 1l.13.13 1 1 5.6 5.6h-5.23a.7.7 0 0 0 0 1.4h6.92a.7.7 0 0 0 .7-.72z" fill="#fff"/></svg>
